HIERARCHY
ROOT Hips
{
  OFFSET 155.048 98.1286 3.93448
  CHANNELS 6 Xposition Yposition Zposition Zrotation Xrotation Yrotation
  JOINT RightUpLeg
  {
    OFFSET -8.9458 -8.66707 0.101652
    CHANNELS 3 Zrotation Xrotation Yrotation
    JOINT RightLeg
    {
      OFFSET 0 -44.4227 1.3727
      CHANNELS 3 Zrotation Xrotation Yrotation
      JOINT RightFoot
      {
        OFFSET 0.253549 -42.0924 -1.46059
        CHANNELS 3 Zrotation Xrotation Yrotation
        JOINT RightToes
        {
          OFFSET 0.04 -4.41509 8.4991
          CHANNELS 3 Zrotation Xrotation Yrotation
          End Site
          {
            OFFSET -0.08 -0.137448 9.77979
          }
        }
      }
    }
  }
  JOINT Spine
  {
    OFFSET 0 11.8905 0
    CHANNELS 3 Zrotation Xrotation Yrotation
    JOINT Spine1
    {
      OFFSET 0 25.6574 0.127663
      CHANNELS 3 Zrotation Xrotation Yrotation
      JOINT Head
      {
        OFFSET 0 8.73416 0.011341
        CHANNELS 3 Zrotation Xrotation Yrotation
        End Site
        {
          OFFSET -0.29 12.7742 2.51395
        }
      }
      JOINT LeftShoulder1
      {
        OFFSET 8.99 -0.362252 -0.22
        CHANNELS 3 Zrotation Xrotation Yrotation
        JOINT LeftArm
        {
          OFFSET 10.2827 -0.00337999 0.322123
          CHANNELS 3 Zrotation Xrotation Yrotation
          JOINT LeftForeArm
          {
            OFFSET 26.2597 0.099144 -1.42434
            CHANNELS 3 Zrotation Xrotation Yrotation
            JOINT LeftHand
            {
              OFFSET 22.0902 0.085362 1.02216
              CHANNELS 3 Zrotation Xrotation Yrotation
              End Site
              {
                OFFSET 13.419 -0.6 1.50291
              }
            }
          }
        }
      }
      JOINT RightShoulder
      {
        OFFSET -8.99 -0.362252 -0.22
        CHANNELS 3 Zrotation Xrotation Yrotation
        JOINT RightArm
        {
          OFFSET -10.2827 -0.00338 0.322123
          CHANNELS 3 Zrotation Xrotation Yrotation
          JOINT RightForeArm
          {
            OFFSET -26.364 0.099144 -1.42434
            CHANNELS 3 Zrotation Xrotation Yrotation
            JOINT RightHand
            {
              OFFSET -22.0324 0.085362 1.02216
              CHANNELS 3 Zrotation Xrotation Yrotation
              End Site
              {
                OFFSET -13.3284 -0.6 1.50291
              }
            }
          }
        }
      }
    }
  }
  JOINT LeftUpLeg
  {
    OFFSET 8.9458 -8.66707 0.101652
    CHANNELS 3 Zrotation Xrotation Yrotation
    JOINT LeftLeg
    {
      OFFSET 0 -44.4227 1.3727
      CHANNELS 3 Zrotation Xrotation Yrotation
      JOINT LeftFoot
      {
        OFFSET -0.253549 -42.0924 -1.46059
        CHANNELS 3 Zrotation Xrotation Yrotation
        JOINT LeftToes
        {
          OFFSET -0.04 -4.41509 8.4991
          CHANNELS 3 Zrotation Xrotation Yrotation
          End Site
          {
            OFFSET 0.08 -0.047448 9.77979
          }
        }
      }
    }
  }
}
MOTION
Frames:	16
Frame Time:	0.0333333
47.2314 101.188 -0.342681 0.423248 0.87559 -87.1819 -0.180155 -5.90487 -4.92014 -1.25171 12.1626 -9.74145 3.00738 -6.77838 -0.194507 0.0462048 0.000530889 0.662642 2.88576 -14.1966 0.515071 -2.96313 23.6777 1.1638 3.16542 -6.39665 -6.88192 -39.7183 8.62582 -15.1297 -39.7754 -26.8955 -6.62978 -13.2041 12.3845 -11.2329 22.6986 8.93083 0.361971 50.4304 13.1674 18.7072 19.9877 -44.4388 -5.17442 6.82974 27.2771 9.06533 -5.55914 9.55076 3.10278 0.180294 -2.69467 4.68577 1.69314 12.3912 14.3086 -3.76689 -9.41506 -0.0109227 -1.33837e-009 8.75228e-006 -1.48252e-008 
47.1756 101.193 -0.298599 0.417747 0.917485 -87.0805 -0.154279 -5.791 -4.92528 -1.25705 12.035 -9.85046 2.99911 -6.74036 -0.194492 0.0462048 0.000530889 0.662642 2.79992 -14.1452 0.481116 -2.83286 23.722 1.09629 3.30063 -6.42054 -6.86052 -39.773 8.6589 -15.1771 -39.6441 -28.1561 -6.38812 -13.3222 13.4892 -10.5556 22.6104 8.9606 0.498658 50.441 13.1756 18.7164 19.8017 -44.5829 -5.46142 6.81305 27.5712 8.89874 -5.58522 9.54222 3.26828 0.192824 -2.65905 4.68733 1.71495 12.3787 14.2264 -3.74867 -9.44436 -0.0109236 -1.33837e-009 8.75228e-006 -1.48252e-008 
47.0772 101.201 -0.213621 0.468394 1.03545 -86.9018 -0.0644386 -5.64202 -4.89025 -1.26441 11.7761 -10.0788 3.01475 -6.65898 -0.19446 0.0462048 0.000530889 0.662642 2.75311 -14.1192 0.417823 -2.74619 23.8193 1.00838 3.37357 -6.63338 -6.89733 -39.7874 8.67145 -15.1978 -39.3927 -30.1361 -5.96172 -13.5431 15.3983 -9.40866 22.4669 8.99021 0.623033 50.4545 13.1771 18.713 19.6804 -44.9261 -5.77919 6.81567 27.9433 8.53684 -5.86383 9.52 3.30441 0.258578 -2.68648 4.69643 1.75224 12.4012 14.0413 -3.70355 -9.51486 -0.0109258 -1.33837e-009 8.75228e-006 -1.48252e-008 
46.9806 101.205 -0.110497 0.601928 1.16875 -86.7673 0.00698748 -5.5941 -4.85714 -1.23838 11.5315 -10.254 3.07874 -6.58732 -0.194431 0.0462048 0.000530889 0.662642 2.83591 -14.2451 0.392793 -2.88899 24.0207 1.02271 3.56039 -6.81352 -6.7925 -39.6297 8.62543 -15.1662 -39.3083 -31.6895 -5.64911 -13.7734 17.1093 -8.37472 22.3812 9.01734 0.748828 50.5329 13.2017 18.7204 19.6683 -45.2534 -5.96938 6.8274 27.9863 8.26091 -6.25861 9.49917 3.10792 0.331362 -2.81643 4.70798 1.77399 12.4562 13.8762 -3.6603 -9.60291 -0.0109287 -1.33837e-009 8.75228e-006 -1.48252e-008 
46.9031 101.204 0.0104144 0.780489 1.23063 -86.7152 -0.0573381 -5.67975 -4.92351 -1.15272 11.4344 -10.2437 3.15186 -6.58256 -0.19443 0.0462048 0.000530889 0.662642 2.93476 -14.4487 0.422712 -3.12689 24.2368 1.12798 3.74954 -6.89762 -6.82238 -39.4037 8.56712 -15.1371 -39.4863 -32.826 -5.51226 -13.9366 18.349 -7.62872 22.2702 9.05784 0.942321 50.6288 13.2399 18.7429 19.6468 -45.4172 -6.12496 6.80386 27.9003 8.20772 -6.34755 9.49676 3.01933 0.326572 -2.98594 4.69603 1.74712 12.4969 13.8319 -3.58881 -9.67353 -0.0109309 -1.33837e-009 8.75228e-006 -1.48252e-008 
46.8415 101.196 0.150131 0.942771 1.22511 -86.6741 -0.215417 -5.82488 -5.0545 -1.07155 11.4789 -10.1522 3.20204 -6.62631 -0.194447 0.0462048 0.000530889 0.662642 2.88082 -14.5328 0.442993 -3.13071 24.2936 1.1649 3.74673 -6.86768 -7.02498 -39.3512 8.56124 -15.1466 -39.6477 -33.729 -5.33026 -13.9743 19.0766 -7.24231 22.0813 9.09278 1.09131 50.5929 13.2287 18.7397 19.6297 -45.4189 -6.24543 6.7795 28.0191 8.20621 -5.97868 9.51626 3.19084 0.248046 -3.14481 4.64712 1.6817 12.5422 13.864 -3.45075 -9.72805 -0.0109327 -1.33837e-009 8.75228e-006 -1.48252e-008 
46.7879 101.185 0.29733 1.0471 1.24002 -86.58 -0.293054 -5.92769 -5.0909 -1.09954 11.5513 -10.1873 3.26948 -6.65088 -0.194456 0.0462048 0.000530889 0.662642 2.69204 -14.4466 0.412374 -2.82425 24.2005 1.05828 3.55992 -6.79147 -7.17904 -39.5089 8.60708 -15.1781 -39.5477 -33.715 -4.95113 -13.8714 18.8063 -7.47521 22.0249 9.09377 1.08512 50.4402 13.1684 18.7047 19.6498 -45.3123 -6.24395 6.82513 28.161 8.13395 -5.53683 9.54282 3.34451 0.183175 -3.30267 4.56809 1.64102 12.6867 13.8656 -3.3029 -9.8091 -0.0109354 -1.33837e-009 8.75228e-006 -1.48252e-008 
46.7375 101.169 0.446664 1.089 1.31667 -86.4677 -0.237335 -5.96074 -4.98765 -1.2346 11.6036 -10.3551 3.3867 -6.64725 -0.194455 0.0462048 0.000530889 0.662642 2.59004 -14.3327 0.383989 -2.56533 24.153 0.958605 3.47011 -6.73266 -7.19667 -39.6614 8.65174 -15.209 -39.3044 -32.104 -4.51795 -13.694 17.1445 -8.43935 22.2316 9.07223 1.01156 50.3767 13.1427 18.689 19.654 -45.1875 -6.13372 6.88433 28.0354 8.14397 -5.48491 9.54738 3.33009 0.163754 -3.46894 4.46516 1.66253 12.9671 13.8388 -3.2201 -9.93386 -0.0109395 -1.33837e-009 8.75228e-006 -1.48252e-008 
46.6889 101.15 0.610528 1.0914 1.39873 -86.406 -0.188422 -5.97222 -4.89044 -1.3607 11.6895 -10.4644 3.50377 -6.66234 -0.194461 0.0462048 0.000530889 0.662642 2.73591 -14.3024 0.422706 -2.70132 24.2504 1.038 3.64061 -6.66035 -7.24335 -39.6533 8.66205 -15.2345 -39.1598 -29.6468 -4.26849 -13.5403 14.7894 -9.69331 22.4079 9.06283 1.00007 50.4815 13.1852 18.7149 19.6539 -45.1469 -5.98011 6.8245 27.8392 8.37406 -5.79296 9.52143 3.39431 0.129175 -3.61316 4.34596 1.70155 13.2928 13.8747 -3.14604 -10.0606 -0.0109438 -1.33837e-009 8.75228e-006 -1.48252e-008 
46.6449 101.132 0.792586 1.07654 1.43504 -86.4129 -0.25022 -5.99734 -4.91539 -1.4074 11.832 -10.4038 3.58624 -6.70311 -0.194477 0.0462048 0.000530889 0.662642 3.02339 -14.3093 0.516271 -3.07434 24.3836 1.2458 3.85685 -6.51602 -7.42021 -39.5533 8.64685 -15.2444 -39.1874 -27.8799 -4.28234 -13.4248 13.0558 -10.6183 22.247 9.07246 1.01774 50.588 13.2283 18.7411 19.7384 -45.118 -5.76603 6.68063 27.7643 8.73461 -6.04673 9.49348 3.59547 0.0505204 -3.71309 4.24393 1.68757 13.5761 14.0035 -2.96476 -10.1516 -0.0109469 -1.33837e-009 8.75228e-006 -1.48252e-008 
46.6067 101.116 0.969908 1.0557 1.44809 -86.47 -0.358255 -6.01569 -5.00248 -1.41592 11.9597 -10.2475 3.68904 -6.72964 -0.194488 0.0462048 0.000530889 0.662642 3.18375 -14.2734 0.605054 -3.20914 24.4073 1.37956 3.85115 -6.31108 -7.60491 -39.4927 8.6305 -15.2351 -39.3348 -27.0394 -4.45241 -13.3111 12.1343 -11.1756 21.9557 9.07794 0.984022 50.5634 13.2211 18.7398 19.8746 -44.8494 -5.48818 6.6234 27.4774 9.14054 -6.01235 9.49613 3.59425 -0.0232356 -3.78493 4.19249 1.61779 13.8187 14.1725 -2.69133 -10.2137 -0.010949 -1.33837e-009 8.75228e-006 -1.48252e-008 
46.5706 101.101 1.12323 1.03982 1.48165 -86.5596 -0.419803 -6.01652 -5.04721 -1.43152 12.0299 -10.1013 3.83396 -6.74257 -0.194493 0.0462048 0.000530889 0.662642 3.12384 -14.1887 0.6586 -2.97412 24.2647 1.36075 3.69049 -6.07788 -7.66736 -39.4997 8.63267 -15.2368 -39.4744 -25.9583 -4.55221 -13.1976 10.9157 -11.8745 21.9349 9.07135 0.943523 50.4831 13.1985 18.7366 19.9695 -44.3032 -5.23923 6.6475 26.7947 9.65385 -5.8512 9.5194 3.33927 -0.0607166 -3.85765 4.17001 1.56025 14.0565 14.3486 -2.46385 -10.2772 -0.0109829 -1.33837e-009 8.75228e-006 -1.48252e-008 
46.5333 101.085 1.26201 1.02403 1.53648 -86.6691 -0.444866 -6.0172 -5.04813 -1.44149 12.0943 -9.97833 3.93208 -6.77521 -0.194506 0.0462048 0.000530889 0.662642 3.03873 -14.0792 0.693477 -2.73941 23.9962 1.31298 3.61598 -5.80074 -7.63978 -39.53 8.65699 -15.276 -39.4742 -24.0938 -4.46009 -13.1137 8.85711 -12.9508 22.1592 9.0651 0.957697 50.4578 13.2004 18.7509 20.0845 -43.8022 -5.05211 6.55106 26.2142 10.291 -5.81638 9.52453 3.27875 -0.100594 -3.91357 4.11942 1.56957 14.271 14.5476 -2.36275 -10.3616 -0.0109017 -1.33837e-009 8.75228e-006 -1.48252e-008 
46.4965 101.069 1.39806 0.968661 1.57645 -86.803 -0.487064 -5.98982 -5.05937 -1.43952 12.1821 -9.82511 3.94127 -6.81915 -0.194524 0.0462048 0.000530889 0.662642 3.10837 -13.974 0.747833 -2.81179 23.7644 1.37279 3.6774 -5.47474 -7.60583 -39.5279 8.67619 -15.318 -39.3777 -22.3253 -4.37259 -13.05 6.85822 -14.0237 22.3028 9.05797 0.949835 50.4922 13.2199 18.7689 20.2904 -43.4917 -4.84119 6.29107 26.023 10.9688 -5.952 9.50184 3.57032 -0.182153 -3.8762 4.03836 1.62619 14.3985 14.7678 -2.34161 -10.4568 -0.0105726 -1.33837e-009 8.75228e-006 -1.48252e-008 
46.4627 101.058 1.51948 0.854071 1.57385 -86.981 -0.554365 -5.88395 -5.0885 -1.45818 12.2357 -9.61367 3.97558 -6.85567 -0.194539 0.0462048 0.000530889 0.662642 3.22214 -13.9269 0.84953 -3.01807 23.7333 1.52837 3.75231 -5.14806 -7.54884 -39.4466 8.65254 -15.3019 -39.3734 -21.5201 -4.57464 -12.9577 5.83773 -14.6742 22.2815 9.03666 0.830566 50.5557 13.2464 18.7856 20.4559 -43.0151 -4.58507 6.08584 25.6518 11.6576 -6.14111 9.47806 3.77713 -0.289342 -3.72107 3.98422 1.66882 14.4342 14.9747 -2.32222 -10.5367 -0.0101138 -1.33837e-009 8.75228e-006 -1.48252e-008 
46.4333 101.048 1.61523 0.74639 1.54315 -87.1634 -0.616705 -5.74459 -5.10283 -1.51406 12.2081 -9.42618 4.14754 -6.9074 -0.19456 0.0462048 0.000530889 0.662642 3.16796 -13.9544 0.983745 -3.00682 23.7972 1.66438 3.77058 -4.82871 -7.36776 -39.3117 8.59324 -15.2322 -39.5436 -21.3842 -5.0058 -12.8493 5.46746 -15.0116 22.23 9.00988 0.674916 50.6201 13.2758 18.8069 20.4616 -42.2022 -4.40779 6.05934 24.7984 12.3104 -6.26007 9.47351 3.66914 -0.389913 -3.57152 3.95398 1.67847 14.4648 15.151 -2.28262 -10.5964 -0.00964411 -1.33837e-009 8.75228e-006 -1.48252e-008 
